<svg width="520" height="491" viewBox="0 0 520 491" fill="none" xmlns="http://www.w3.org/2000/svg">
<path d="M226.26 211V198.12H235.24V199.82H228.44V203.72H234.5V205.4H228.44V209.32H235.24V211H226.26ZM237.256 211V201.52H239.256L239.356 202.52C239.823 202.147 240.336 201.853 240.896 201.64C241.456 201.427 242.056 201.32 242.696 201.32C243.376 201.32 243.903 201.433 244.276 201.66C244.663 201.873 244.956 202.173 245.156 202.56C245.596 202.2 246.103 201.907 246.676 201.68C247.249 201.44 247.936 201.32 248.736 201.32C249.829 201.32 250.636 201.6 251.156 202.16C251.676 202.72 251.936 203.58 251.936 204.74V211H249.796V204.96C249.796 204.227 249.643 203.713 249.336 203.42C249.029 203.127 248.529 202.98 247.836 202.98C247.383 202.98 246.949 203.06 246.536 203.22C246.136 203.38 245.789 203.62 245.496 203.94C245.536 204.087 245.563 204.24 245.576 204.4C245.589 204.56 245.596 204.733 245.596 204.92V211H243.576V204.98C243.576 204.287 243.456 203.78 243.216 203.46C242.976 203.14 242.523 202.98 241.856 202.98C241.389 202.98 240.943 203.093 240.516 203.32C240.103 203.533 239.729 203.793 239.396 204.1V211H237.256ZM254.385 215.32V201.52H256.265L256.385 202.46C256.812 202.073 257.278 201.787 257.785 201.6C258.292 201.413 258.892 201.32 259.585 201.32C260.945 201.32 262.005 201.693 262.765 202.44C263.525 203.173 263.905 204.393 263.905 206.1C263.905 207.807 263.512 209.087 262.725 209.94C261.938 210.78 260.865 211.2 259.505 211.2C258.358 211.2 257.378 210.933 256.565 210.4V215.32H254.385ZM258.945 209.56C260.785 209.56 261.705 208.4 261.705 206.08C261.705 204.96 261.498 204.167 261.085 203.7C260.672 203.22 259.978 202.98 259.005 202.98C258.032 202.98 257.218 203.313 256.565 203.98V208.72C256.872 208.973 257.212 209.18 257.585 209.34C257.972 209.487 258.425 209.56 258.945 209.56ZM269.646 211.2C268.632 211.2 267.872 210.933 267.366 210.4C266.872 209.853 266.626 209.113 266.626 208.18V203.22H265.226V201.52H266.626V199.34L268.786 198.68V201.52H271.306L271.166 203.22H268.786V208.06C268.786 208.607 268.912 208.993 269.166 209.22C269.419 209.433 269.832 209.54 270.406 209.54C270.766 209.54 271.146 209.473 271.546 209.34V210.88C271.026 211.093 270.392 211.2 269.646 211.2ZM274.455 214.52C273.735 214.52 273.121 214.427 272.615 214.24V212.62C272.841 212.7 273.048 212.753 273.235 212.78C273.435 212.807 273.635 212.82 273.835 212.82C274.248 212.82 274.581 212.753 274.835 212.62C275.088 212.487 275.308 212.273 275.495 211.98C275.695 211.7 275.908 211.333 276.135 210.88L271.915 201.52H274.175L277.215 208.56L280.295 201.52H282.535L278.675 210.46C278.341 211.26 277.981 211.96 277.595 212.56C277.221 213.173 276.781 213.653 276.275 214C275.781 214.347 275.175 214.52 274.455 214.52ZM283.868 211V209.3H285.708V211H283.868ZM287.442 211V209.3H289.282V211H287.442ZM291.016 211V209.3H292.856V211H291.016Z" fill="#252525"/>
<path d="M260.934 168.852C302.422 167.978 335.917 160.771 335.748 152.756C335.578 144.741 301.808 138.952 260.319 139.827C218.831 140.702 185.336 147.908 185.505 155.923C185.675 163.939 219.445 169.727 260.934 168.852Z" fill="#6C63FF"/>
<path opacity="0.7" d="M260.934 168.852C302.422 167.978 335.917 160.771 335.748 152.756C335.578 144.741 301.808 138.952 260.319 139.827C218.831 140.702 185.336 147.908 185.505 155.923C185.675 163.939 219.445 169.727 260.934 168.852Z" fill="white"/>
<path d="M343.922 105.925C343.922 105.925 367.611 83.6124 354.595 53.9844C350.98 45.7518 345.132 38.6964 337.86 33.3915C321.561 21.5204 280.353 -1.96705 218.349 7.10381C211.688 8.05285 205.316 10.4416 199.676 14.1031C190.576 20.0629 180.929 31.0091 185.031 49.7751C186.481 56.3999 186.154 63.3177 183.755 69.6698C181.386 75.9659 176.898 83.6838 168.546 92.0132C168.546 92.0132 150.749 109.174 168.064 124.026C171.763 127.167 176.139 129.414 180.85 130.592C202.448 136.104 289.744 154.408 343.922 105.925Z" fill="#6C63FF"/>
<path opacity="0.7" d="M343.922 105.925C343.922 105.925 367.611 83.6124 354.595 53.9844C350.98 45.7518 345.132 38.6964 337.86 33.3915C321.561 21.5204 280.353 -1.96705 218.349 7.10381C211.688 8.05285 205.316 10.4416 199.676 14.1031C190.576 20.0629 180.929 31.0091 185.031 49.7751C186.481 56.3999 186.154 63.3177 183.755 69.6698C181.386 75.9659 176.898 83.6838 168.546 92.0132C168.546 92.0132 150.749 109.174 168.064 124.026C171.763 127.167 176.139 129.414 180.85 130.592C202.448 136.104 289.744 154.408 343.922 105.925Z" fill="white"/>
<path d="M220.495 158.279C220.495 158.279 221.45 159.346 221.437 159.741C220.113 160.043 218.767 160.239 217.411 160.33C215.609 160.404 212.888 159.729 212.411 159.51C211.933 159.29 212.071 158.687 212.071 158.687C212.071 158.687 213.549 158.019 214.624 158.024C215.699 158.029 218.688 158.23 220.495 158.279Z" fill="#F1F1F1"/>
<path d="M222.328 159.66C222.328 159.66 221.999 158.697 221.355 158.248C221.355 158.248 223.571 157.874 224.574 158.608C225.578 159.341 223.219 159.578 222.328 159.66Z" fill="#F1F1F1"/>
<path d="M234.839 155.779C234.839 155.779 235.704 154.76 235.656 154.358C234.303 154.018 232.927 153.78 231.538 153.644C229.711 153.509 227.025 154.087 226.563 154.291C226.101 154.495 226.308 155.099 226.308 155.099C226.308 155.099 227.86 155.812 228.937 155.843C230.014 155.874 233.016 155.759 234.839 155.779Z" fill="#F1F1F1"/>
<path d="M236.557 154.467C236.557 154.467 236.301 155.415 235.704 155.838C235.704 155.838 237.973 156.286 238.92 155.583C239.868 154.88 237.468 154.579 236.557 154.467Z" fill="#F1F1F1"/>
<path d="M192.972 157.632V156.358C193.327 156.407 193.667 156.536 193.965 156.735C194.621 157.211 193.843 157.481 192.972 157.632Z" fill="#F1F1F1"/>
<path d="M203.428 155.601C203.428 155.601 204.209 154.508 204.127 154.118C202.751 153.888 201.359 153.758 199.964 153.731C198.134 153.731 195.502 154.538 195.06 154.778C194.619 155.017 194.859 155.603 194.859 155.603C194.859 155.603 196.464 156.19 197.539 156.133C198.614 156.077 201.61 155.728 203.428 155.601Z" fill="#F1F1F1"/>
<path d="M205.039 154.154C205.039 154.154 204.873 155.117 204.298 155.588C204.298 155.588 206.596 155.843 207.487 155.079C208.378 154.314 205.952 154.194 205.039 154.154Z" fill="#F1F1F1"/>
<path d="M250.042 159.102C250.042 159.102 251.063 160.096 251.091 160.491C249.792 160.889 248.464 161.187 247.119 161.38C245.333 161.586 242.56 161.125 242.07 160.931C241.58 160.738 241.669 160.136 241.669 160.136C241.669 160.136 243.094 159.372 244.158 159.285C245.223 159.199 248.235 159.196 250.042 159.102Z" fill="#F1F1F1"/>
<path d="M251.972 160.345C251.972 160.345 251.571 159.408 250.897 159.01C250.897 159.01 253.077 158.47 254.134 159.127C255.191 159.785 252.855 160.198 251.972 160.345Z" fill="#F1F1F1"/>
<path d="M263.464 156.35C263.464 156.35 264.391 155.374 264.365 154.979C263.035 154.558 261.675 154.236 260.296 154.016C258.481 153.761 255.765 154.194 255.293 154.368C254.821 154.541 254.979 155.158 254.979 155.158C254.979 155.158 256.485 155.963 257.56 156.057C258.635 156.151 261.647 156.223 263.464 156.35Z" fill="#F1F1F1"/>
<path d="M265.264 155.142C265.264 155.142 264.963 156.075 264.33 156.46C264.33 156.46 266.571 157.041 267.556 156.404C268.541 155.767 266.168 155.308 265.264 155.142Z" fill="#F1F1F1"/>
<path d="M278.908 158.279C278.908 158.279 279.86 159.346 279.85 159.741C278.525 160.043 277.178 160.24 275.822 160.33C274.02 160.404 271.296 159.729 270.819 159.51C270.341 159.29 270.482 158.687 270.482 158.687C270.482 158.687 271.957 158.019 273.034 158.024C274.112 158.029 277.098 158.23 278.908 158.279Z" fill="#F1F1F1"/>
<path d="M280.738 159.66C280.738 159.66 280.409 158.697 279.766 158.248C279.766 158.248 281.981 157.874 282.987 158.608C283.993 159.341 281.629 159.578 280.738 159.66Z" fill="#F1F1F1"/>
<path d="M292.46 157.466C292.46 157.466 293.241 156.37 293.162 155.981C291.785 155.75 290.392 155.621 288.996 155.593C287.166 155.609 284.536 156.401 284.092 156.641C283.648 156.88 283.893 157.466 283.893 157.466C283.893 157.466 285.496 158.052 286.571 157.996C287.646 157.94 290.63 157.601 292.46 157.466Z" fill="#F1F1F1"/>
<path d="M294.061 156.029C294.061 156.029 293.892 156.992 293.32 157.464C293.32 157.464 295.618 157.718 296.506 156.954C297.394 156.19 294.972 156.067 294.061 156.029Z" fill="#F1F1F1"/>
<path d="M307.684 159.217C307.684 159.217 308.639 160.282 308.626 160.679C307.301 160.979 305.954 161.176 304.598 161.268C302.796 161.342 300.072 160.666 299.598 160.445C299.123 160.223 299.258 159.622 299.258 159.622C299.258 159.622 300.736 158.954 301.811 158.959C302.885 158.964 305.875 159.173 307.684 159.217Z" fill="#F1F1F1"/>
<path d="M309.517 160.598C309.517 160.598 309.188 159.632 308.542 159.186C308.542 159.186 310.758 158.811 311.763 159.545C312.769 160.279 310.405 160.524 309.517 160.598Z" fill="#F1F1F1"/>
<path d="M320.616 156.74V158.46C318.799 158.608 316.3 158.895 315.337 158.941C314.26 158.997 312.657 158.414 312.657 158.414C312.657 158.414 312.402 157.828 312.859 157.588C313.316 157.349 315.922 156.554 317.762 156.541C318.717 156.549 319.67 156.615 320.616 156.74Z" fill="#F1F1F1"/>
<path d="M309.976 154.352C309.999 153.28 309.826 152.213 309.466 151.203C309.287 150.693 303.301 152.956 302.717 153.147C300.741 153.799 299.283 154.944 297.581 156.161C296.774 156.74 295.955 157.326 295.028 157.657C294.101 157.988 292.986 158.057 292.016 158.394C291.046 158.73 290.078 159.471 289.974 160.501C292.036 161.158 294.262 161.658 296.355 161.089C298.377 160.541 300.001 159.074 301.854 158.101C303.142 157.445 304.517 156.976 305.938 156.709C305.938 157.109 305.958 157.512 305.971 157.912C307.023 157.911 308.07 157.76 309.08 157.466C309.214 157.436 309.34 157.377 309.448 157.293C309.549 157.188 309.622 157.06 309.662 156.921C309.957 156.099 310.065 155.221 309.976 154.352Z" fill="#6C63FF"/>
<path d="M265.146 152.584C264.25 152.584 263.308 152.548 262.509 152.959C261.534 153.468 260.978 154.487 260.49 155.474C266.479 156.592 272.667 155.871 278.236 153.407C278.285 153.97 278.211 154.537 278.019 155.068C279.486 155.219 280.962 155.267 282.436 155.211C282.592 155.218 282.749 155.188 282.892 155.124C283.063 155.014 283.195 154.852 283.27 154.663C283.662 153.886 283.933 153.055 284.074 152.197C284.147 151.9 284.13 151.589 284.026 151.302C283.824 150.966 283.496 150.723 283.115 150.627C280.544 149.718 277.769 150.831 275.265 151.435C271.952 152.231 268.554 152.617 265.146 152.584Z" fill="#6C63FF"/>
<path d="M254.494 93.3534C251.96 93.2821 249.426 93.2651 246.892 93.3025C246.59 93.2701 246.286 93.355 246.045 93.5394C245.789 93.807 245.83 94.2401 245.935 94.5994C246.42 96.2683 248.391 98.8571 250.389 98.2558C252.452 97.6392 254.078 95.374 254.494 93.3534Z" fill="#F7A48B"/>
<path d="M241.264 90.3697L252.034 98.6532C252.149 98.7425 252.244 98.8558 252.311 98.9854C252.378 99.115 252.415 99.2577 252.421 99.4034C252.427 99.5491 252.401 99.6943 252.345 99.8288C252.288 99.9633 252.203 100.084 252.095 100.182C251.916 100.345 251.685 100.438 251.443 100.443C251.202 100.449 250.966 100.367 250.78 100.213L240.284 91.5036L241.264 90.3697Z" fill="#252525"/>
<path d="M255.518 89.9824C254.589 90.3009 253.307 90.6653 252.488 91.208C251.668 91.7507 250.933 90.5812 250.096 90.3315C249.2 90.0767 248.409 90.2576 247.49 90.3901C246.333 90.5583 245.468 91.1545 244.531 91.8603C243.588 92.5652 242.511 93.0715 241.366 93.3483C240.761 95.323 245.585 93.8707 246.198 93.7586C246.849 93.6388 247.324 93.6108 247.936 93.8987C249.379 94.579 250.014 94.7115 251.668 94.5586C252.707 95.2389 254.022 95.7715 255.109 94.6402C255.73 93.9955 256.896 93.3662 257.42 92.6986C257.721 92.3036 257.751 92.5712 257.448 91.8323C257.07 90.9048 256.353 90.5099 255.518 89.9824Z" fill="#F9B499"/>
<path d="M245.772 93.5776C245.126 94.0872 244.214 94.421 243.398 94.7803C243.283 94.8292 243.186 94.9125 243.121 95.0187C243.056 95.1249 243.026 95.2486 243.035 95.3728C243.043 95.4969 243.091 95.6153 243.17 95.7114C243.249 95.8075 243.356 95.8766 243.477 95.9091C244.901 96.2836 248.128 94.8644 247.816 93.3483C247.311 93.1088 246.2 93.2362 245.772 93.5776Z" fill="#F9B499"/>
<path d="M244.625 95.5498C244.304 96.0135 244.209 97.0022 244.625 97.4328C245.953 98.8036 248.26 96.5945 249.006 95.6008C250.499 93.6082 248.148 94.072 246.999 94.6019C246.32 94.9001 245.537 95.2186 244.625 95.5498Z" fill="#F9B499"/>
<path d="M245.856 97.257C245.764 100.439 250.875 97.471 250.451 95.4173C250.104 93.7662 248.621 95.5218 248.105 95.9142C247.589 96.3066 246.122 96.5945 245.856 97.257Z" fill="#F9B499"/>
<path d="M247.819 98.0749C248.603 100.307 251.778 97.7564 251.423 96.0365C251.275 95.323 250.864 95.0427 250.211 95.5855C249.866 95.8734 249.721 96.3804 249.422 96.7117C249.016 97.1754 247.834 97.4684 247.819 98.0749Z" fill="#F9B499"/>
<path d="M240.809 91.8501C240.809 91.8501 225.103 90.413 219.949 77.8107L221.736 74.9161C221.736 74.9161 233.899 75.6601 241.629 90.5888L240.809 91.8501Z" fill="#6C63FF"/>
<path d="M221.496 78.1597C221.496 78.1597 230.94 81.3396 238.734 90.3213C238.736 90.3213 226.223 87.8599 221.496 78.1597Z" fill="#E5E5E5"/>
<g opacity="0.3">
<path d="M226.9 77.1176C226.366 76.8628 225.81 76.6309 225.217 76.4144L224.082 78.2667C224.661 78.4782 225.256 78.705 225.868 78.9471L226.9 77.1176Z" fill="white"/>
<path d="M227.415 77.375L226.358 79.1586C227.782 79.7396 229.167 80.412 230.504 81.1715L231.053 79.9229C229.952 78.9243 228.73 78.0682 227.415 77.375Z" fill="white"/>
<path d="M231.556 81.811C232.131 82.1781 232.685 82.577 233.215 83.006L233.628 82.4964C233.082 81.8951 232.559 81.3498 232.043 80.8428L231.556 81.811Z" fill="white"/>
</g>
<path d="M260.595 93.4146C259.735 93.8656 258.729 94.0796 257.871 94.528C257.075 92.7474 256.073 91.0655 254.887 89.5161L257.029 88.26C258.137 89.9748 259.49 91.6998 260.595 93.4146Z" fill="white"/>
<path d="M288.476 105.421C281.389 109.033 273.278 110.118 265.489 108.496C266.357 101.428 265.422 94.2783 264.493 87.2178C263.62 80.6151 262.749 74.0141 261.879 67.4148C261.519 64.691 260.373 61.7277 260.164 58.9886C259.955 56.2495 261.019 53.062 263.612 52.1422C265.91 51.3268 268.429 52.6059 270.331 54.1398C276.802 59.3581 280.031 67.5346 282.454 75.4792C285.405 85.1412 287.112 95.4097 288.476 105.421Z" fill="#6C63FF"/>
<path opacity="0.2" d="M288.476 105.421C281.389 109.033 273.278 110.118 265.489 108.496C266.357 101.428 265.422 94.2783 264.493 87.2178C263.62 80.6151 262.749 74.0141 261.879 67.4148C261.519 64.691 260.373 61.7277 260.164 58.9886C259.955 56.2495 261.019 53.062 263.612 52.1422C265.91 51.3268 268.429 52.6059 270.331 54.1398C276.802 59.3581 280.031 67.5346 282.454 75.4792C285.405 85.1412 287.112 95.4097 288.476 105.421Z" fill="black"/>
<path d="M284.922 94.3319C283.039 102.88 281.906 111.576 281.535 120.321C281.417 123.068 281.376 125.825 281.047 128.554C280.613 132.154 279.687 135.688 278.763 139.182C277.741 143.089 276.712 146.996 275.674 150.902C277.736 151.476 279.836 151.902 281.959 152.176C283.515 152.386 285.09 152.415 286.653 152.261C290.975 151.751 294.852 149.137 299.186 148.757C299.163 141.666 299.141 134.57 298.753 127.489C298.472 122.503 298.016 117.53 297.384 112.57C296.899 108.782 296.302 104.993 295.263 101.316C294.811 99.7209 294.257 98.1131 293.221 96.8085C291.421 94.5153 287.725 93.4961 284.922 94.3319Z" fill="#252525"/>
<path opacity="0.2" d="M284.922 94.3319C283.039 102.88 281.906 111.576 281.535 120.321C281.417 123.068 281.376 125.825 281.047 128.554C280.613 132.154 279.687 135.688 278.763 139.182C277.741 143.089 276.712 146.996 275.674 150.902C277.736 151.476 279.836 151.902 281.959 152.176C283.515 152.386 285.09 152.415 286.653 152.261C290.975 151.751 294.852 149.137 299.186 148.757C299.163 141.666 299.141 134.57 298.753 127.489C298.472 122.503 298.016 117.53 297.384 112.57C296.899 108.782 296.302 104.993 295.263 101.316C294.811 99.7209 294.257 98.1131 293.221 96.8085C291.421 94.5153 287.725 93.4961 284.922 94.3319Z" fill="black"/>
<path opacity="0.2" d="M297.841 116.403C297.7 115.123 297.548 113.849 297.384 112.581C296.899 108.792 296.302 105.003 295.263 101.326C294.811 99.7311 294.257 98.1233 293.221 96.8187C291.414 94.5255 287.717 93.5063 284.914 94.342C284.011 98.4494 283.28 102.591 282.722 106.766C286.964 111.075 292.19 114.201 297.841 116.403Z" fill="black"/>
<path d="M314.385 149.86L309.415 152.067C308.491 152.477 307.567 152.887 306.607 153.213C304.289 154.008 301.824 154.282 299.388 154.016C298.523 151.213 297.657 148.41 296.789 145.608C296.169 143.602 295.549 141.595 295.128 139.541C294.591 136.942 294.377 134.287 294.163 131.642L292.47 110.675C297.831 105.523 303.727 101.622 310.709 99.0635C311.368 98.8087 312.075 98.5921 312.751 98.745C314.204 104.929 314.249 111.361 312.881 117.564C312.427 119.603 311.827 121.621 311.559 123.695C311.123 127.074 311.577 130.496 312.034 133.869C312.726 139.039 313.688 144.69 314.385 149.86Z" fill="#252525"/>
<path opacity="0.2" d="M312.641 118.568C312.723 118.235 312.802 117.901 312.876 117.564C314.25 111.362 314.211 104.931 312.764 98.745C312.08 98.5921 311.373 98.8214 310.722 99.0635C303.74 101.611 297.838 105.523 292.483 110.675L292.993 116.981C299.431 117.987 306.068 118.719 312.641 118.568Z" fill="black"/>
<path d="M272.72 79.3318C273.371 84.4737 272.536 90.3315 269.562 91.817C266.589 93.3025 263.127 93.8554 259.834 94.2987C258.532 92.2094 257.19 90.3162 255.885 88.2269C259.372 85.1947 264.59 82.5448 265.409 78.0018C265.994 74.7338 265.861 71.3781 265.019 68.1665C268.623 73.6931 269.662 73.4765 272.72 79.3318Z" fill="#252525"/>
<path opacity="0.2" d="M272.72 79.3318C273.371 84.4737 272.536 90.3315 269.562 91.817C266.589 93.3025 263.127 93.8554 259.834 94.2987C258.532 92.2094 257.19 90.3162 255.885 88.2269C259.372 85.1947 264.59 82.5448 265.409 78.0018C265.994 74.7338 265.861 71.3781 265.019 68.1665C268.623 73.6931 269.662 73.4765 272.72 79.3318Z" fill="black"/>
<path d="M284.07 89.8703C282.283 91.5953 279.768 92.4565 277.282 92.3979C275.204 86.721 271.625 81.7422 268.391 76.6309C265.157 71.5197 262.18 66.0211 261.542 60.0104C261.381 58.4816 260.194 57.126 260.072 55.5921C259.949 54.0582 260.475 52.374 261.764 51.5154C263.053 50.6567 264.904 50.8707 266.267 51.6759C267.63 52.481 268.629 53.7652 269.547 55.0545C276.843 65.2975 280.657 77.7826 284.07 89.8703Z" fill="#252525"/>
<path d="M268.557 70.6992C268.276 65.4605 267.932 59.9976 265.297 55.4571C264.72 54.4634 263.977 53.4799 262.903 53.0722C258.193 51.2886 261.019 59.3683 261.703 61.1035C263.158 64.8185 265.513 68.1154 268.557 70.6992Z" fill="white"/>
<path d="M259.385 52.6288C258.626 55.0656 258.48 57.6518 258.961 60.1582C260.325 67.1855 262.612 74.6817 263.526 81.7804C265.632 71.8993 264.102 60.6576 259.487 51.6682C259.482 51.9908 259.448 52.3123 259.385 52.6288Z" fill="#6C63FF"/>
<path opacity="0.4" d="M259.385 52.6288C258.626 55.0656 258.48 57.6518 258.961 60.1582C260.325 67.1855 262.612 74.6817 263.526 81.7804C265.632 71.8993 264.102 60.6576 259.487 51.6682C259.482 51.9908 259.448 52.3123 259.385 52.6288Z" fill="black"/>
<path d="M262.438 36.2758C262.438 36.2758 258.053 40.322 255.579 40.0749C253.106 39.8277 254.208 34.8005 254.208 34.8005C254.208 34.8005 259.735 34.3138 262.438 36.2758Z" fill="#6C63FF"/>
<path opacity="0.2" d="M262.438 36.2758C262.438 36.2758 258.053 40.322 255.579 40.0749C253.106 39.8277 254.208 34.8005 254.208 34.8005C254.208 34.8005 259.735 34.3138 262.438 36.2758Z" fill="black"/>
<path d="M254.591 56.7754C259.384 54.0131 260.3 46.6384 256.636 40.3037C252.972 33.9689 246.116 31.073 241.322 33.8353C236.529 36.5977 235.613 43.9724 239.277 50.3071C242.942 56.6418 249.798 59.5378 254.591 56.7754Z" fill="#F9B499"/>
<path d="M245.006 58.5223L244.883 57.7579C245.077 58.021 245.324 58.2406 245.608 58.4026L245.644 57.7401C245.765 57.8643 245.916 57.9557 246.082 58.0056C246.248 58.0555 246.424 58.0624 246.594 58.0255C246.932 57.9462 247.254 57.8092 247.546 57.6203C247.793 57.496 248.013 57.3226 248.192 57.1107C248.278 57.0043 248.329 56.8743 248.34 56.738C248.351 56.6016 248.321 56.4651 248.253 56.3463L249.062 57.0955L248.603 55.745L249.169 56.3336C249.353 56.5493 249.581 56.7231 249.838 56.8432C249.968 56.8986 250.112 56.9117 250.249 56.8806C250.387 56.8494 250.511 56.7757 250.604 56.6699C250.859 56.3107 250.54 55.8317 250.211 55.5412C249.411 54.8501 248.462 54.3529 247.437 54.0886C246.413 53.8243 245.342 53.7999 244.306 54.0175C243.931 54.0965 242.93 54.3029 242.747 54.6876C242.622 54.9424 242.943 55.689 243.05 55.9616C243.256 56.4674 243.529 56.9437 243.86 57.3783C244.043 57.6025 244.98 58.2879 245.006 58.5223Z" fill="#252525"/>
<path d="M241.287 41.1705C241.746 42.2483 242.428 43.3185 243.497 43.8C244.192 44.1109 244.975 44.1415 245.736 44.1415C246.65 44.1415 247.563 44.1083 248.475 44.0421C249.751 45.4282 250.846 46.8882 251.556 48.6285C252.25 48.2157 253.044 47.6781 253.741 47.2653C253.021 45.7034 252.416 44.0319 251.699 42.4725C253.687 43.9325 256.549 44.2714 258.869 43.4382C257.353 40.2889 255.446 37.3587 252.963 34.9075L241.287 41.1705Z" fill="#252525"/>
<path d="M252.564 43.7185C251.93 42.8604 251.406 41.9255 251.007 40.9361C250.79 40.4035 251.155 39.6901 251.398 39.1678C251.512 38.9018 251.684 38.6647 251.902 38.4738C252.119 38.2829 252.377 38.143 252.656 38.0645C252.923 38.0352 253.192 38.106 253.409 38.2632C254.397 39.2468 254.665 40.7246 254.813 42.1107C254.895 42.6709 254.895 43.2399 254.813 43.8C254.73 44.3659 254.427 44.8764 253.971 45.2218C253.434 44.7888 252.96 44.2827 252.564 43.7185Z" fill="#F7B595"/>
<path d="M255.571 35.7484C255.571 35.7484 260.227 35.5394 262.438 36.2758C262.438 36.2758 260.843 33.2182 253.593 33.3329C246.343 33.4475 255.571 35.7484 255.571 35.7484Z" fill="#6C63FF"/>
<path d="M255.571 35.7484C247.635 36.7497 240.128 42.5897 237.83 50.2388C237.092 49.984 236.513 49.2757 235.911 48.7737C234.098 47.2678 231.535 46.1136 231.3 43.772C230.923 40.0035 231.87 36.2427 232.807 32.5736C235.104 30.5581 237.583 28.1299 240.587 27.5413C244.13 26.8508 247.694 28.3566 250.987 29.8345C252.24 30.3976 253.23 31.5034 254.012 32.6016C254.152 32.8029 255.701 35.7305 255.571 35.7484Z" fill="#6C63FF"/>
<path opacity="0.3" d="M255.571 35.7484C247.635 36.7497 240.128 42.5897 237.83 50.2388C237.092 49.984 236.513 49.2757 235.911 48.7737C234.098 47.2678 231.535 46.1136 231.3 43.772C230.923 40.0035 231.87 36.2427 232.807 32.5736C235.104 30.5581 237.583 28.1299 240.587 27.5413C244.13 26.8508 247.694 28.3566 250.987 29.8345C252.24 30.3976 253.23 31.5034 254.012 32.6016C254.152 32.8029 255.701 35.7305 255.571 35.7484Z" fill="white"/>
<path d="M250.987 29.837C247.694 28.3566 244.13 26.8508 240.587 27.5438C239.022 27.8496 237.603 28.6573 236.276 29.6434C235.528 30.661 234.869 31.7401 234.305 32.8691C233.044 35.4426 232.401 38.4059 233.006 41.2087C233.692 44.381 235.842 46.9621 238.142 49.3164C239.849 44.6001 243.541 40.6533 248.028 38.2199C246.95 34.9979 245.664 31.8488 244.179 28.7923C246.415 29.6417 248.639 30.5054 250.851 31.3836C251.967 31.8295 253.088 32.2882 254.155 32.8386C254.086 32.7163 254.037 32.6322 254.017 32.6041C253.231 31.506 252.24 30.4001 250.987 29.837Z" fill="#6C63FF"/>
<path d="M244.179 28.7923C245.664 31.8488 246.95 34.9979 248.028 38.2199C250.367 36.9377 252.925 36.1013 255.571 35.7535C255.681 35.7382 254.55 33.58 254.149 32.8436C253.082 32.2933 251.962 31.8245 250.846 31.3887C248.637 30.5071 246.415 29.6417 244.179 28.7923Z" fill="#6C63FF"/>
<path opacity="0.2" d="M243.142 41.8534C241.996 39.4175 240.031 37.4683 237.986 35.7127C237.121 34.9661 236.156 34.2145 235.017 34.1126C234.093 34.031 233.008 34.426 232.582 35.249C234.532 36.1994 236.235 37.0886 237.968 38.4696C238.823 39.1525 239.65 39.871 240.559 40.4825C240.985 40.7679 242.979 41.5017 243.142 41.8534Z" fill="black"/>
<path d="M235.911 48.7737L236.641 54.6672C236.641 54.6672 238.499 52.4148 238.923 47.4717C238.923 47.4717 237.021 47.5405 235.911 48.7737Z" fill="#6C63FF"/>
<path d="M249.588 37.5498C247.641 39.4256 245.385 40.9522 242.918 42.0623C240.963 40.1564 238.726 37.8377 236.184 36.8313C235.528 36.581 234.86 36.3642 234.183 36.1815L231.931 35.542C231.872 34.1079 232.133 32.6786 232.697 31.3582C233.146 30.2931 234.456 29.6281 235.38 28.935C237.437 27.4062 240.835 27.0673 243.39 27.3578C244.518 28.9911 249.432 36.0618 249.805 37.0835C249.802 36.9841 249.596 37.6594 249.588 37.5498Z" fill="#6C63FF"/>
<path opacity="0.3" d="M249.588 37.5498C247.641 39.4256 245.385 40.9522 242.918 42.0623C240.963 40.1564 238.726 37.8377 236.184 36.8313C235.528 36.581 234.86 36.3642 234.183 36.1815L231.931 35.542C231.872 34.1079 232.133 32.6786 232.697 31.3582C233.146 30.2931 234.456 29.6281 235.38 28.935C237.437 27.4062 240.835 27.0673 243.39 27.3578C244.518 28.9911 249.432 36.0618 249.805 37.0835C249.802 36.9841 249.596 37.6594 249.588 37.5498Z" fill="white"/>
<path d="M243.398 27.368C243.027 27.3272 242.632 27.2992 242.239 27.2839C241.57 27.3756 240.908 27.5135 240.258 27.6967C237.756 28.4025 235.408 29.9033 234.078 32.1328C235.986 30.3654 238.335 29.1414 240.878 28.5885C238.274 30.3186 235.584 32.1557 234.006 34.8387C237.07 34.9483 239.421 37.481 241.396 39.8226C241.997 40.5127 242.561 41.2339 243.086 41.9833C245.487 40.8801 247.685 39.3813 249.588 37.5498C249.588 37.6517 249.774 37.0759 249.807 37.0835C249.409 36.0261 244.521 28.9962 243.398 27.368Z" fill="#6C63FF"/>
<path d="M263.426 56.117C261.415 55.5743 259.322 55.3399 257.244 55.1641C257.652 50.3008 258.059 45.4367 258.464 40.5717C259.74 40.4418 260.965 40.4392 262.193 40.8112C263.413 45.6091 263.71 51.1739 263.426 56.117Z" fill="white"/>
<path d="M261.09 46.9137C260.985 49.3623 260.947 51.8925 261.856 54.1653C262.765 56.4381 264.886 58.4051 267.342 58.3949L264.072 43.7796C263.86 42.8369 263.643 41.8737 263.148 41.0431C262.109 39.2926 260.763 39.2442 260.998 41.41C261.168 43.2396 261.199 45.0794 261.09 46.9137Z" fill="#402C35"/>
<path d="M262.451 40.5386C262.86 46.1917 262.899 51.8654 262.568 57.5235C269.925 65.5395 275.482 74.9696 279.27 85.1616C283.058 95.3536 285.512 105.981 287.949 116.573C293.889 117.241 299.102 113.878 303.776 110.157C308.45 106.437 312.84 102.085 318.454 100.032C316.815 92.798 315.179 85.3145 312.371 78.4553C310.295 73.4154 307.84 68.4009 303.98 64.5483C300.475 61.0525 296.008 58.7083 291.615 56.4202C281.953 51.388 272.102 45.5709 262.451 40.5386Z" fill="#6C63FF"/>
<mask id="mask0_18_496" style="mask-type:luminance" maskUnits="userSpaceOnUse" x="262" y="40" width="52" height="46">
<path style="mix-blend-mode:multiply" d="M312.371 78.4553C310.296 73.4154 307.84 68.4009 303.981 64.5483C300.476 61.0525 296.009 58.7083 291.615 56.4202C281.966 51.388 272.116 45.5709 262.464 40.5386C262.745 44.4014 262.85 48.2701 262.78 52.1447C263.51 53.3193 264.248 54.494 264.983 55.6813C266.466 58.0943 268.764 59.8779 271.018 61.6131C273.68 63.6642 276.378 65.7357 279.442 67.1091C281.813 68.1741 284.356 68.7984 286.811 69.6571C294.893 72.5253 301.838 77.9074 306.625 85.0113C308.885 83.6524 311.084 82.2026 313.221 80.6619C312.943 79.9229 312.66 79.184 312.371 78.4553Z" fill="url(#paint0_linear_18_496)"/>
</mask>
<g mask="url(#mask0_18_496)">
<path opacity="0.1" d="M312.371 78.4553C310.296 73.4154 307.84 68.4009 303.981 64.5483C300.476 61.0525 296.009 58.7083 291.615 56.4202C281.966 51.388 272.116 45.5709 262.464 40.5386C262.745 44.4014 262.85 48.2701 262.78 52.1447C263.51 53.3193 264.248 54.494 264.983 55.6813C266.466 58.0943 268.764 59.8779 271.018 61.6131C273.68 63.6642 276.378 65.7357 279.442 67.1091C281.813 68.1741 284.356 68.7984 286.811 69.6571C294.893 72.5253 301.838 77.9074 306.625 85.0113C308.885 83.6524 311.084 82.2026 313.221 80.6619C312.943 79.9229 312.66 79.184 312.371 78.4553Z" fill="white"/>
</g>
<path d="M273.348 70.9336C274.017 70.3985 274.073 69.4685 273.729 68.7398C273.384 68.0111 272.723 67.4352 272.074 66.8798C271.426 66.3243 270.762 65.7383 270.43 65.0121C270.099 64.2859 270.175 63.3508 270.847 62.8259C270.889 62.7917 270.944 62.7748 270.999 62.7786C271.053 62.7824 271.105 62.8065 271.143 62.8463C270.923 63.4884 270.704 64.1891 271.007 64.8057C271.357 65.5115 272.261 65.8555 272.998 66.2886C274.665 67.2671 275.699 69.1857 274.969 70.8011C274.902 70.9888 274.787 71.1562 274.637 71.2873C274.486 71.4184 274.304 71.5089 274.109 71.5502C273.685 71.5986 273.034 71.1859 273.348 70.9336Z" fill="#252525"/>
<path d="M269.764 72.4038C270.825 73.95 272.366 75.105 274.15 75.6907C274.632 75.873 275.151 75.9376 275.663 75.8793C275.918 75.8457 276.16 75.7456 276.364 75.589C276.568 75.4324 276.727 75.225 276.825 74.9875C277.032 74.3709 276.679 73.7135 276.33 73.1682C275.639 72.0828 274.916 71.0169 274.162 69.9705L269.764 72.4038Z" fill="#6C63FF"/>
<path opacity="0.3" d="M269.764 72.4038C270.825 73.95 272.366 75.105 274.15 75.6907C274.632 75.873 275.151 75.9376 275.663 75.8793C275.918 75.8457 276.16 75.7456 276.364 75.589C276.568 75.4324 276.727 75.225 276.825 74.9875C277.032 74.3709 276.679 73.7135 276.33 73.1682C275.639 72.0828 274.916 71.0169 274.162 69.9705L269.764 72.4038Z" fill="white"/>
<path d="M284.1 70.9336C283.589 71.3515 281.833 72.1006 281.233 71.8331C280.761 71.6241 280.682 70.903 280.169 70.7068C279.188 70.3374 277.999 71.1502 277.131 71.4712C276.35 71.7566 274.162 71.3744 274.305 72.3707C274.486 73.6447 277.2 73.8409 278.203 73.8001C277.001 74.2944 275.88 74.9212 274.683 75.3544C273.2 74.7556 272.455 73.9326 270.762 74.1415C270.492 75.2346 272.508 75.7442 273.118 76.4169C273.478 76.8144 273.573 77.2526 274.124 77.403C274.561 77.5202 275.717 77.403 276.166 77.2348C276.421 78.1623 277.172 78.1317 277.968 78.1342C278.374 78.1342 278.555 78.6821 278.949 78.7891C279.268 78.8783 279.671 78.6821 280.016 78.705C281.915 78.8375 282.941 76.8144 284.028 76.1723C284.771 75.7315 285.943 74.8983 286.732 74.7148C286.441 73.7313 284.159 71.1273 284.1 70.9336Z" fill="#F9B499"/>
<g opacity="0.3">
<path d="M274.162 69.9705L269.764 72.4038C269.964 72.6947 270.181 72.973 270.415 73.237C271.848 72.3979 273.311 71.6139 274.803 70.8852C274.591 70.5795 274.379 70.2711 274.162 69.9705Z" fill="white"/>
</g>
<path d="M288.731 74.6562C287.911 75.0257 286.977 75.5047 286.158 75.8716C285.226 74.1084 284.258 72.5057 283.327 70.7425L286.002 69.6902C287.028 71.27 287.705 73.0816 288.731 74.6562Z" fill="white"/>
<path d="M302.415 72.4471C298.2 74.8532 293.417 76.0901 288.562 76.0296C287.112 73.9275 285.443 71.9732 284.271 69.7055C286.704 68.0035 289.033 66.158 291.245 64.1789C295.794 65.3408 300.297 68.2659 302.415 72.4471Z" fill="#252525"/>
<path d="M315.993 76.6335L311.322 65.5956C310.066 62.6221 308.736 59.5492 306.324 57.4012C303.26 54.68 298.982 53.8901 295.347 51.9816C289.841 49.0846 285.964 43.665 280.368 40.9437C274.461 38.0721 267.679 38.6633 261.136 39.257C263.663 44.0829 261.478 50.2337 263.551 55.2711C264.955 58.6778 268.161 61.0831 271.61 62.4055C275.058 63.7279 278.783 64.0821 282.451 64.4897C286.119 64.8974 289.854 65.3764 293.211 66.8874C299.812 69.8482 304.057 76.2666 307.939 82.3614C310.839 81.0415 313.933 79.0337 315.993 76.6335Z" fill="#6C63FF"/>
<path opacity="0.4" d="M315.993 76.6335L311.322 65.5956C310.066 62.6221 308.736 59.5492 306.324 57.4012C303.26 54.68 298.982 53.8901 295.347 51.9816C289.841 49.0846 285.964 43.665 280.368 40.9437C274.461 38.0721 267.679 38.6633 261.136 39.257C263.663 44.0829 261.478 50.2337 263.551 55.2711C264.955 58.6778 268.161 61.0831 271.61 62.4055C275.058 63.7279 278.783 64.0821 282.451 64.4897C286.119 64.8974 289.854 65.3764 293.211 66.8874C299.812 69.8482 304.057 76.2666 307.939 82.3614C310.839 81.0415 313.933 79.0337 315.993 76.6335Z" fill="black"/>
<g opacity="0.2">
<path d="M268.429 56.5655C270.403 55.6338 272.257 54.4678 273.951 53.0926C272.562 51.9154 271.824 50.1649 271.143 48.4807L267.176 38.7983C265.17 38.8798 263.15 39.0531 261.154 39.2417C263.681 44.0676 261.496 50.2184 263.569 55.2558C264.973 58.6625 268.179 61.0678 271.628 62.3902C273.818 63.2234 276.121 63.6642 278.451 63.998C274.724 62.0717 271.273 59.7479 268.429 56.5655Z" fill="black"/>
</g>
<path d="M260.587 38.5333C260.695 42.8445 260.575 48.3202 261.825 52.4479C263.076 56.5757 265.524 59.4039 269.376 61.3659C267.937 59.7658 267.293 57.4369 267.237 55.2889C268.738 55.0571 270.277 54.2162 271.431 53.2327C269.389 48.4501 267.602 43.3465 266.596 38.2479L260.587 38.5333Z" fill="#6C63FF"/>
<path opacity="0.3" d="M260.587 38.5333C260.695 42.8445 260.575 48.3202 261.825 52.4479C263.076 56.5757 265.524 59.4039 269.376 61.3659C267.937 59.7658 267.293 57.4369 267.237 55.2889C268.738 55.0571 270.277 54.2162 271.431 53.2327C269.389 48.4501 267.602 43.3465 266.596 38.2479L260.587 38.5333Z" fill="white"/>
<path opacity="0.2" d="M276.506 59.6511C281.08 60.362 285.67 58.8867 290.232 58.1045C294.793 57.3222 300.006 57.3961 303.391 60.5454C300.072 59.7352 296.128 58.9198 292.708 59.1517C291.362 59.2434 290.032 59.4982 288.7 59.7148C284.588 60.3875 280.414 61.0958 276.506 59.6511Z" fill="black"/>
<path opacity="0.2" d="M298.865 55.6253C296.879 55.0894 294.796 55.0144 292.777 55.4061C289.369 56.0712 286.255 58.0484 282.791 58.237C287.324 57.3757 292.2 56.7235 296.736 55.8622C297.486 55.7195 298.155 55.3373 298.865 55.6253Z" fill="black"/>
<path opacity="0.2" d="M307.069 74.7658C304.942 71.0455 302.028 67.8327 298.53 65.351C300.572 66.1764 302.401 67.452 303.88 69.0824C305.358 70.7127 306.449 72.6556 307.069 74.7658Z" fill="black"/>
<mask id="mask1_18_496" style="mask-type:luminance" maskUnits="userSpaceOnUse" x="193" y="78" width="62" height="77">
<path style="mix-blend-mode:multiply" d="M221.498 78.1597L193.521 154.115H254.642L238.736 90.3213L221.498 78.1597Z" fill="url(#paint1_linear_18_496)"/>
</mask>
<g mask="url(#mask1_18_496)">
<path opacity="0.5" d="M221.498 78.1597L193.521 154.115H254.642L238.736 90.3213L221.498 78.1597Z" fill="#E5E5E5"/>
</g>
<path d="M247.5 94.3879C246.599 95.1074 245.564 95.6402 244.455 95.9549" stroke="#F7A48B" stroke-miterlimit="10"/>
<path d="M249.463 94.8262C248.479 96.0307 247.283 97.0454 245.933 97.8201" stroke="#F7A48B" stroke-miterlimit="10"/>
<path d="M247.985 98.4418C247.985 98.4418 249.795 97.3996 250.443 95.4173" stroke="#F7A48B" stroke-miterlimit="10"/>
<defs>
<linearGradient id="paint0_linear_18_496" x1="287.858" y1="65.8376" x2="293.246" y2="88.6492" gradientUnits="userSpaceOnUse">
<stop stop-color="white"/>
<stop offset="1"/>
</linearGradient>
<linearGradient id="paint1_linear_18_496" x1="240.459" y1="88.074" x2="231.279" y2="125.234" gradientUnits="userSpaceOnUse">
<stop stop-color="white"/>
<stop offset="1"/>
</linearGradient>
</defs>
</svg>
